<svg id="svg8" version="1.1" sodipodi:docname="Hertz_Car_Rental_logo.svg" inkscape:version="1.3.2 (091e20e, 2023-11-25, custom)" xmlns:inkscape="http://www.inkscape.org/namespaces/inkscape" xmlns:sodipodi="http://sodipodi.sourceforge.net/DTD/sodipodi-0.dtd" xmlns="http://www.w3.org/2000/svg" xmlns:svg="http://www.w3.org/2000/svg" xmlns:rdf="http://www.w3.org/1999/02/22-rdf-syntax-ns#" xmlns:cc="http://creativecommons.org/ns#" xmlns:dc="http://purl.org/dc/elements/1.1/" viewBox="-0.02 -0.02 35.78 12.58">
  <sodipodi:namedview id="namedview1" pagecolor="#505050" bordercolor="#eeeeee" borderopacity="1" inkscape:showpageshadow="0" inkscape:pageopacity="0" inkscape:pagecheckerboard="0" inkscape:deskcolor="#505050" inkscape:document-units="mm" inkscape:zoom="5.2193635" inkscape:cx="67.536971" inkscape:cy="23.661889" inkscape:window-width="1920" inkscape:window-height="1001" inkscape:window-x="-9" inkscape:window-y="-9" inkscape:window-maximized="1" inkscape:current-layer="layer1"/>
  <defs id="defs2">
    <clipPath clipPathUnits="userSpaceOnUse" id="clipPath3975">
      <path d="m 11.338,514.378 h 146.309 v 80.897 H 11.338 Z" id="path3973"/>
    </clipPath>
  </defs>
  <metadata id="metadata5">
    <rdf:RDF>
      <cc:Work rdf:about="">
        <dc:format>image/svg+xml</dc:format>
        <dc:type rdf:resource="http://purl.org/dc/dcmitype/StillImage"/>
        <dc:title/>
      </cc:Work>
    </rdf:RDF>
  </metadata>
  <g transform="translate(15.325712,-79.96153)" id="layer1">
    <g id="g4322">
      <g id="g3965" transform="matrix(0.35277777,0,0,-0.35277777,18.155368,92.512657)">
        <path d="m 0,0 h -94.907 l 1.15,5.129 94.825,0.002 z" style="fill: rgb(255, 209, 0); fill-opacity: 1; fill-rule: nonzero; stroke: none; --darkreader-inline-fill: #ffd61a; --darkreader-inline-stroke: none;" id="path3967" data-darkreader-inline-fill="" data-darkreader-inline-stroke=""/>
      </g>
      <g id="g3969" transform="matrix(0.35277777,0,0,-0.35277777,-27.293345,281.96769)">
        <g id="g3971" clip-path="url(#clipPath3975)">
          <g id="g3985" transform="translate(105.9813,550.5309)">
            <path d="m 0,0 c -0.847,0.912 -0.34,2.727 0.093,4.776 l 1.481,6.959 H 7.66 l 1.102,5.18 H 2.673 l 1.079,5.17 H -1.984 L -5.744,4.298 c -0.567,-2.656 -0.779,-4.735 0.374,-6.973 1.073,-2.081 4.735,-4.068 9.372,-2.812 l 1.025,4.808 C 1.882,-1.069 0.619,-0.659 0,0" style="fill: rgb(0, 0, 0); fill-opacity: 1; fill-rule: nonzero; stroke: none; --darkreader-inline-fill: #e8e6e3; --darkreader-inline-stroke: none;" id="path3987" data-darkreader-inline-fill="" data-darkreader-inline-stroke=""/>
          </g>
          <g id="g3989" transform="translate(57.3994,572.6157)">
            <path d="M 0,0 -2.738,-12.844 H -12.805 L -10.075,0 h -5.79 l -5.854,-27.571 h 5.786 l 2.021,9.552 h 10.073 l -2.028,-9.552 h 5.738 L 5.731,0 Z" style="fill: rgb(0, 0, 0); fill-opacity: 1; fill-rule: nonzero; stroke: none; --darkreader-inline-fill: #e8e6e3; --darkreader-inline-stroke: none;" id="path3991" data-darkreader-inline-fill="" data-darkreader-inline-stroke=""/>
          </g>
          <g id="g3993" transform="translate(90.4552,565.4981)">
            <path d="m 0,0 c -2.008,-1.677 -3.149,-3.872 -3.888,-7.338 l -2.788,-13.116 h 5.742 L 1.38,-9.577 c 0.546,2.544 0.964,4.136 1.92,5.115 1.315,1.344 3.22,1.418 5.507,1.23 l 1.104,5.18 C 5.877,2.973 2.354,1.968 0,0" style="fill: rgb(0, 0, 0); fill-opacity: 1; fill-rule: nonzero; stroke: none; --darkreader-inline-fill: #e8e6e3; --darkreader-inline-stroke: none;" id="path3995" data-darkreader-inline-fill="" data-darkreader-inline-stroke=""/>
          </g>
          <g id="g3997" transform="translate(135.2685,567.446)">
            <path d="m 0,0 h -17.92 l -1.099,-5.18 h 10.397 l -13.004,-12.241 -1.056,-4.981 h 17.921 l 1.105,5.176 h -10.458 l 13.068,12.298 z" style="fill: rgb(0, 0, 0); fill-opacity: 1; fill-rule: nonzero; stroke: none; --darkreader-inline-fill: #e8e6e3; --darkreader-inline-stroke: none;" id="path3999" data-darkreader-inline-fill="" data-darkreader-inline-stroke=""/>
          </g>
          <g id="g4001" transform="translate(74.7853,567.8577)">
            <path d="m 0,0 c -1.939,0 -4.591,-0.6 -7.198,-2.646 -5.875,-4.61 -8.793,-20.574 3.825,-20.574 3.271,0 6.91,1.034 9.436,2.94 l -2.283,3.855 c -1.911,-1.468 -11.529,-4.663 -10.516,3.134 H 8.3 c 0.007,0.015 1.918,6.249 -0.838,10.02 C 5.113,-0.056 0.79,0 0,0 m 3.734,-8.549 h -9.205 c 0.324,1.239 2.279,4.289 5.909,3.955 3.904,-0.36 3.296,-3.955 3.296,-3.955" style="fill: rgb(0, 0, 0); fill-opacity: 1; fill-rule: nonzero; stroke: none; --darkreader-inline-fill: #e8e6e3; --darkreader-inline-stroke: none;" id="path4003" data-darkreader-inline-fill="" data-darkreader-inline-stroke=""/>
          </g>
        </g>
      </g>
    </g>
  </g>
</svg>